<svg width="219" height="219" viewBox="0 0 219 219" fill="none" xmlns="http://www.w3.org/2000/svg">
<circle cx="109.5" cy="109.5" r="96.5" fill="#0F1A16"/>
<mask id="mask0_347_23" style="mask-type:alpha" maskUnits="userSpaceOnUse" x="0" y="0" width="219" height="219">
<path d="M109.104 212.12C165.998 212.12 212.12 165.998 212.12 109.103C212.12 52.2085 165.998 6.0863 109.104 6.0863C52.2089 6.0863 6.08678 52.2085 6.08678 109.103C6.08678 165.998 52.2089 212.12 109.104 212.12Z" stroke="white" stroke-width="11.8274"/>
</mask>
<g mask="url(#mask0_347_23)">
<g filter="url(#filter0_f_347_23)">
<rect width="489.068" height="306.744" transform="matrix(-1 8.74228e-08 8.74228e-08 1 352.87 -39.9795)" fill="#FAB31B"/>
<path d="M352.87 266.714L-136.198 266.714L-136.198 186.484C-136.198 186.484 13.8998 145.11 109.873 145.113C205.807 145.116 352.87 186.484 352.87 186.484L352.87 266.714Z" fill="#1A8C8B"/>
<path d="M352.87 -39.9795L-136.199 -39.9794L-136.199 41.6299C-136.199 41.6299 12.3196 85.6699 108.335 85.6699C204.351 85.6699 352.87 41.6298 352.87 41.6298L352.87 -39.9795Z" fill="#F55275"/>
</g>
</g>
<mask id="path-6-outside-1_347_23" maskUnits="userSpaceOnUse" x="11" y="11.6504" width="196" height="197" fill="black">
<rect fill="white" x="11" y="11.6504" width="196" height="197"/>
<path fill-rule="evenodd" clip-rule="evenodd" d="M116.235 12.9607C123.771 13.5089 128.026 14.2072 135.305 16.2344C140.98 17.8148 144.116 18.9639 149.471 21.4178C156.192 24.4971 159.822 26.6395 165.817 30.9661C172.297 35.6434 175.707 38.6834 181.073 44.6065C185.977 50.0204 188.465 53.3584 192.242 59.611C195.912 65.6865 197.671 69.3256 200.142 75.9796C202.787 83.1009 203.873 87.2981 205.046 94.8034C206.2 102.184 206.441 106.436 206.136 113.9C205.864 120.554 205.381 124.308 203.956 130.814C202.573 137.134 201.491 140.645 199.053 146.637C196.665 152.505 195.031 155.709 191.697 161.096C187.819 167.362 185.27 170.701 180.255 176.101C175.225 181.516 172.07 184.307 166.089 188.65C159.723 193.272 155.837 195.533 148.654 198.744C141.896 201.765 137.894 203.114 130.674 204.745C124.701 206.095 121.258 206.556 115.146 206.928C107.281 207.407 102.782 207.249 94.986 206.11C87.2748 204.982 82.9597 203.885 75.6438 201.199C71.8399 199.803 69.7394 198.906 66.1089 197.107C62.6079 195.372 60.6933 194.285 57.3912 192.196C51.616 188.542 48.528 186.183 43.4975 181.557C37.835 176.35 34.924 173.062 30.4211 166.825C25.9516 160.634 23.756 156.87 20.6137 149.911C17.4253 142.85 16.0249 138.651 14.3479 131.087C12.9521 124.791 12.4821 121.16 12.1685 114.718C11.7846 106.832 12.0195 102.328 13.2582 94.5306C14.3446 87.6919 15.3046 83.8705 17.617 77.3436C19.7661 71.2781 21.2801 67.9518 24.4277 62.3391C26.4653 58.7059 27.7231 56.723 30.1486 53.3364C32.6178 49.8889 34.1227 48.0314 36.9593 44.8793C42.1519 39.1093 45.4195 36.1144 51.6703 31.5117C57.9317 26.9011 61.761 24.65 68.8331 21.4178C74.191 18.969 77.325 17.8173 82.9993 16.2344C90.1766 14.2321 94.3659 13.5134 101.797 12.9607C107.42 12.5424 110.611 12.5515 116.235 12.9607ZM94.7136 18.9625C89.9712 19.7089 87.3265 20.3154 82.7268 21.6906C77.8227 23.1568 75.1138 24.1803 70.4677 26.3283C64.3207 29.1702 60.9853 31.1085 55.4843 35.0582C51.7974 37.7054 49.8175 39.3328 46.4942 42.4241C41.9686 46.6337 39.6063 49.2314 35.8696 54.1549C32.9411 58.0134 31.4385 60.3024 29.0589 64.5216C26.9061 68.3388 25.8254 70.5638 24.1553 74.6155C21.6899 80.5965 20.6048 84.1124 19.2516 90.4385C18.3723 94.5492 18.0117 96.8928 17.617 101.078C17.1168 106.382 17.0714 109.397 17.3446 114.718C17.6144 119.971 17.9548 122.928 18.9792 128.086C19.991 133.181 20.7794 136.014 22.5207 140.908C24.4384 146.298 25.7666 149.258 28.5141 154.276C30.8833 158.603 32.3831 160.955 35.3247 164.915C38.2514 168.856 40.06 170.96 43.4975 174.464C47.7268 178.774 50.3201 181.017 55.2118 184.558C61.2749 188.946 64.986 191.076 71.8298 194.106C78.8759 197.226 83.0673 198.615 90.6272 200.108C96.7132 201.31 106.428 201.745 106.428 201.745L106.7 169.826L79.1853 150.456L55.7567 131.905L54.3946 131.633C54.3946 131.633 52.1539 132.832 50.5806 132.997C48.7539 133.187 47.6287 132.922 45.9493 132.178C44.2164 131.411 43.2996 130.673 42.1354 129.177C41.0523 127.786 40.5945 126.81 40.2284 125.085C39.8075 123.102 39.8708 121.828 40.5008 119.902C41.2358 117.655 44.0424 114.991 44.0424 114.991C44.0424 114.991 46.9018 113.293 48.946 113.082C50.3258 112.939 51.1466 113 52.4876 113.354C53.7306 113.683 54.4244 113.99 55.4843 114.718C56.6012 115.486 57.1501 116.07 57.9361 117.174C58.8207 118.416 59.2159 119.237 59.5706 120.72C59.9919 122.482 60.0455 123.61 59.5706 125.358C59.2956 126.37 58.4809 127.813 58.4809 127.813L83.8166 147.183L80.0026 123.994C80.0026 123.994 77.7699 123.52 76.4611 122.903C74.9391 122.185 74.0591 121.686 72.9195 120.447C71.7567 119.184 71.2479 118.269 70.7401 116.628C70.1722 114.793 70.0971 113.602 70.4677 111.718C70.7807 110.126 71.1717 109.227 72.1022 107.898C73.2281 106.29 74.1485 105.478 75.9162 104.625C78.0436 103.598 79.5833 103.395 81.9096 103.806C83.3691 104.064 84.1946 104.384 85.4511 105.17C87.1756 106.249 88.0452 107.189 88.9927 108.989C89.6675 110.272 89.9203 111.096 90.0824 112.536C90.3628 115.028 90.0591 116.691 88.7202 118.811C87.5919 120.597 84.6338 122.357 84.6338 122.357L89.8099 151.548L106.7 163.551V101.078L85.1787 84.7095C85.1787 84.7095 82.9848 86.2318 81.3647 86.6191C79.7092 87.0149 78.664 87.0041 77.0059 86.6191C75.8895 86.3599 75.2736 86.1019 74.2816 85.5279C72.7817 84.66 71.9898 83.9582 71.0125 82.527C69.9861 81.0238 69.5975 79.969 69.378 78.162C69.158 76.3518 69.3082 75.2412 69.9228 73.5243C70.6197 71.5776 71.3285 70.4799 72.9195 69.1593C74.6076 67.7583 75.9167 67.2316 78.0956 66.9769C79.9044 66.7654 81.0223 66.8815 82.7268 67.5225C84.7195 68.2719 85.8 69.0994 87.0857 70.7962C87.7479 71.6702 88.0518 72.229 88.4478 73.2515C89.2212 75.2483 89.4665 76.6194 88.9927 78.7077C88.7913 79.5952 88.1754 80.8902 88.1754 80.8902L106.7 94.8034V58.7926C106.7 58.7926 103.245 57.3085 101.797 55.5189C100.353 53.7356 99.7978 52.3501 99.6173 50.0627C99.418 47.5384 99.857 45.9015 101.252 43.7881C102.416 42.0246 103.425 41.138 105.338 40.2416C107.382 39.2841 108.827 39.0864 111.059 39.4232C112.158 39.5889 112.779 39.7665 113.783 40.2416C115.558 41.0811 116.472 41.9074 117.597 43.5153C118.528 44.8443 118.909 45.7448 119.232 47.3346C119.55 48.9006 119.567 49.8643 119.232 51.4268C118.941 52.7806 118.619 53.5361 117.87 54.7005C116.973 56.0932 116.297 56.8552 114.873 57.7014C113.802 58.3377 111.876 58.7926 111.876 58.7926V81.9814L137.757 73.2515C137.757 73.2515 137.79 70.6883 138.302 69.1593C138.679 68.0301 139.664 66.4313 139.664 66.4313C139.664 66.4313 141.131 64.5312 142.388 63.7032C143.544 62.9424 144.305 62.6301 145.657 62.3391C147.217 62.0035 148.18 62.0204 149.744 62.3391C151.332 62.6629 152.24 63.0314 153.558 63.976C154.844 64.8984 155.468 65.6192 156.282 66.9769C157.096 68.3352 157.43 69.2271 157.644 70.7962C157.965 73.1566 157.662 74.6889 156.554 76.798C155.781 78.2705 155.15 79.0601 153.83 80.0717C152.96 80.7382 152.401 81.044 151.378 81.4358C149.091 82.3114 147.481 82.3323 145.112 81.7086C142.515 81.0245 139.391 77.8893 139.391 77.8893L111.876 87.4376V140.635L138.029 133.269L142.661 121.266L139.119 116.628C139.119 116.628 138.26 113.456 138.574 111.445C138.92 109.232 139.527 107.925 141.026 106.261C142.31 104.836 143.299 104.162 145.112 103.533C147.125 102.835 148.483 102.792 150.561 103.26C152.418 103.679 153.484 104.192 154.92 105.443C156.124 106.492 156.697 107.269 157.372 108.717C158.326 110.765 158.525 112.211 158.189 114.446C157.988 115.778 157.736 116.532 157.099 117.719C156.384 119.053 155.819 119.763 154.647 120.72C153.358 121.774 152.446 122.214 150.833 122.63C149.49 122.977 147.292 122.903 147.292 122.903L144.023 131.633L164.455 125.358L164.182 122.084C164.182 122.084 164.697 118.856 165.817 117.174C166.651 115.921 167.292 115.286 168.541 114.446C169.608 113.728 170.295 113.411 171.538 113.082C172.879 112.727 173.699 112.666 175.079 112.809C176.753 112.982 177.72 113.312 179.166 114.173C180.526 114.982 181.241 115.614 182.162 116.901C183.106 118.22 183.474 119.13 183.797 120.72C184.115 122.286 184.132 123.25 183.797 124.812C183.506 126.166 183.178 126.918 182.435 128.086C181.219 129.995 180.146 130.99 178.076 131.905C175.83 132.899 174.203 133.006 171.81 132.451C169.675 131.956 166.906 129.723 166.906 129.723L135.305 139.271L155.465 148.82C155.465 148.82 157.179 146.336 158.734 145.273C160.072 144.358 160.957 143.949 162.548 143.636C164.009 143.349 164.9 143.349 166.362 143.636C167.952 143.949 168.854 144.334 170.176 145.273C172.033 146.593 172.918 147.777 173.717 149.911C174.394 151.718 174.527 152.91 174.262 154.821C173.993 156.761 173.535 157.897 172.355 159.459C171.072 161.158 169.982 161.967 167.996 162.733C166.1 163.465 164.827 163.6 162.82 163.278C161.123 163.007 160.136 162.636 158.734 161.642C157.443 160.726 156.843 159.986 156.009 158.641C154.945 156.923 154.375 153.73 154.375 153.73L127.95 141.727L111.876 146.092L112.149 201.745C112.149 201.745 120.847 201.373 126.315 200.381C133.074 199.154 136.824 198.014 143.205 195.47C149.306 193.038 152.634 191.336 158.189 187.831C163.14 184.708 165.797 182.715 170.176 178.829C175.982 173.674 178.962 170.378 183.524 164.097C187.593 158.496 189.597 155.097 192.515 148.82C195.51 142.373 196.848 138.545 198.508 131.633C200.14 124.835 200.664 120.885 200.96 113.9C201.271 106.543 201.038 102.346 199.87 95.0762C198.841 88.6731 197.944 85.0953 195.784 78.9805C193.308 71.9728 191.485 68.1358 187.611 61.7935C183.691 55.3778 181.068 51.9727 175.897 46.5162C170.964 41.3121 167.869 38.6358 162.003 34.5126C155.922 30.2388 152.218 28.1609 145.385 25.2371C141.64 23.6349 139.48 22.8571 135.577 21.6906C131.597 20.5005 129.317 19.957 125.225 19.2353C118.291 18.0121 114.286 17.7298 107.245 17.8712C102.334 17.9699 99.5663 18.1987 94.7136 18.9625Z"/>
</mask>
<path fill-rule="evenodd" clip-rule="evenodd" d="M116.235 12.9607C123.771 13.5089 128.026 14.2072 135.305 16.2344C140.98 17.8148 144.116 18.9639 149.471 21.4178C156.192 24.4971 159.822 26.6395 165.817 30.9661C172.297 35.6434 175.707 38.6834 181.073 44.6065C185.977 50.0204 188.465 53.3584 192.242 59.611C195.912 65.6865 197.671 69.3256 200.142 75.9796C202.787 83.1009 203.873 87.2981 205.046 94.8034C206.2 102.184 206.441 106.436 206.136 113.9C205.864 120.554 205.381 124.308 203.956 130.814C202.573 137.134 201.491 140.645 199.053 146.637C196.665 152.505 195.031 155.709 191.697 161.096C187.819 167.362 185.27 170.701 180.255 176.101C175.225 181.516 172.07 184.307 166.089 188.65C159.723 193.272 155.837 195.533 148.654 198.744C141.896 201.765 137.894 203.114 130.674 204.745C124.701 206.095 121.258 206.556 115.146 206.928C107.281 207.407 102.782 207.249 94.986 206.11C87.2748 204.982 82.9597 203.885 75.6438 201.199C71.8399 199.803 69.7394 198.906 66.1089 197.107C62.6079 195.372 60.6933 194.285 57.3912 192.196C51.616 188.542 48.528 186.183 43.4975 181.557C37.835 176.35 34.924 173.062 30.4211 166.825C25.9516 160.634 23.756 156.87 20.6137 149.911C17.4253 142.85 16.0249 138.651 14.3479 131.087C12.9521 124.791 12.4821 121.16 12.1685 114.718C11.7846 106.832 12.0195 102.328 13.2582 94.5306C14.3446 87.6919 15.3046 83.8705 17.617 77.3436C19.7661 71.2781 21.2801 67.9518 24.4277 62.3391C26.4653 58.7059 27.7231 56.723 30.1486 53.3364C32.6178 49.8889 34.1227 48.0314 36.9593 44.8793C42.1519 39.1093 45.4195 36.1144 51.6703 31.5117C57.9317 26.9011 61.761 24.65 68.8331 21.4178C74.191 18.969 77.325 17.8173 82.9993 16.2344C90.1766 14.2321 94.3659 13.5134 101.797 12.9607C107.42 12.5424 110.611 12.5515 116.235 12.9607ZM94.7136 18.9625C89.9712 19.7089 87.3265 20.3154 82.7268 21.6906C77.8227 23.1568 75.1138 24.1803 70.4677 26.3283C64.3207 29.1702 60.9853 31.1085 55.4843 35.0582C51.7974 37.7054 49.8175 39.3328 46.4942 42.4241C41.9686 46.6337 39.6063 49.2314 35.8696 54.1549C32.9411 58.0134 31.4385 60.3024 29.0589 64.5216C26.9061 68.3388 25.8254 70.5638 24.1553 74.6155C21.6899 80.5965 20.6048 84.1124 19.2516 90.4385C18.3723 94.5492 18.0117 96.8928 17.617 101.078C17.1168 106.382 17.0714 109.397 17.3446 114.718C17.6144 119.971 17.9548 122.928 18.9792 128.086C19.991 133.181 20.7794 136.014 22.5207 140.908C24.4384 146.298 25.7666 149.258 28.5141 154.276C30.8833 158.603 32.3831 160.955 35.3247 164.915C38.2514 168.856 40.06 170.96 43.4975 174.464C47.7268 178.774 50.3201 181.017 55.2118 184.558C61.2749 188.946 64.986 191.076 71.8298 194.106C78.8759 197.226 83.0673 198.615 90.6272 200.108C96.7132 201.31 106.428 201.745 106.428 201.745L106.7 169.826L79.1853 150.456L55.7567 131.905L54.3946 131.633C54.3946 131.633 52.1539 132.832 50.5806 132.997C48.7539 133.187 47.6287 132.922 45.9493 132.178C44.2164 131.411 43.2996 130.673 42.1354 129.177C41.0523 127.786 40.5945 126.81 40.2284 125.085C39.8075 123.102 39.8708 121.828 40.5008 119.902C41.2358 117.655 44.0424 114.991 44.0424 114.991C44.0424 114.991 46.9018 113.293 48.946 113.082C50.3258 112.939 51.1466 113 52.4876 113.354C53.7306 113.683 54.4244 113.99 55.4843 114.718C56.6012 115.486 57.1501 116.07 57.9361 117.174C58.8207 118.416 59.2159 119.237 59.5706 120.72C59.9919 122.482 60.0455 123.61 59.5706 125.358C59.2956 126.37 58.4809 127.813 58.4809 127.813L83.8166 147.183L80.0026 123.994C80.0026 123.994 77.7699 123.52 76.4611 122.903C74.9391 122.185 74.0591 121.686 72.9195 120.447C71.7567 119.184 71.2479 118.269 70.7401 116.628C70.1722 114.793 70.0971 113.602 70.4677 111.718C70.7807 110.126 71.1717 109.227 72.1022 107.898C73.2281 106.29 74.1485 105.478 75.9162 104.625C78.0436 103.598 79.5833 103.395 81.9096 103.806C83.3691 104.064 84.1946 104.384 85.4511 105.17C87.1756 106.249 88.0452 107.189 88.9927 108.989C89.6675 110.272 89.9203 111.096 90.0824 112.536C90.3628 115.028 90.0591 116.691 88.7202 118.811C87.5919 120.597 84.6338 122.357 84.6338 122.357L89.8099 151.548L106.7 163.551V101.078L85.1787 84.7095C85.1787 84.7095 82.9848 86.2318 81.3647 86.6191C79.7092 87.0149 78.664 87.0041 77.0059 86.6191C75.8895 86.3599 75.2736 86.1019 74.2816 85.5279C72.7817 84.66 71.9898 83.9582 71.0125 82.527C69.9861 81.0238 69.5975 79.969 69.378 78.162C69.158 76.3518 69.3082 75.2412 69.9228 73.5243C70.6197 71.5776 71.3285 70.4799 72.9195 69.1593C74.6076 67.7583 75.9167 67.2316 78.0956 66.9769C79.9044 66.7654 81.0223 66.8815 82.7268 67.5225C84.7195 68.2719 85.8 69.0994 87.0857 70.7962C87.7479 71.6702 88.0518 72.229 88.4478 73.2515C89.2212 75.2483 89.4665 76.6194 88.9927 78.7077C88.7913 79.5952 88.1754 80.8902 88.1754 80.8902L106.7 94.8034V58.7926C106.7 58.7926 103.245 57.3085 101.797 55.5189C100.353 53.7356 99.7978 52.3501 99.6173 50.0627C99.418 47.5384 99.857 45.9015 101.252 43.7881C102.416 42.0246 103.425 41.138 105.338 40.2416C107.382 39.2841 108.827 39.0864 111.059 39.4232C112.158 39.5889 112.779 39.7665 113.783 40.2416C115.558 41.0811 116.472 41.9074 117.597 43.5153C118.528 44.8443 118.909 45.7448 119.232 47.3346C119.55 48.9006 119.567 49.8643 119.232 51.4268C118.941 52.7806 118.619 53.5361 117.87 54.7005C116.973 56.0932 116.297 56.8552 114.873 57.7014C113.802 58.3377 111.876 58.7926 111.876 58.7926V81.9814L137.757 73.2515C137.757 73.2515 137.79 70.6883 138.302 69.1593C138.679 68.0301 139.664 66.4313 139.664 66.4313C139.664 66.4313 141.131 64.5312 142.388 63.7032C143.544 62.9424 144.305 62.6301 145.657 62.3391C147.217 62.0035 148.18 62.0204 149.744 62.3391C151.332 62.6629 152.24 63.0314 153.558 63.976C154.844 64.8984 155.468 65.6192 156.282 66.9769C157.096 68.3352 157.43 69.2271 157.644 70.7962C157.965 73.1566 157.662 74.6889 156.554 76.798C155.781 78.2705 155.15 79.0601 153.83 80.0717C152.96 80.7382 152.401 81.044 151.378 81.4358C149.091 82.3114 147.481 82.3323 145.112 81.7086C142.515 81.0245 139.391 77.8893 139.391 77.8893L111.876 87.4376V140.635L138.029 133.269L142.661 121.266L139.119 116.628C139.119 116.628 138.26 113.456 138.574 111.445C138.92 109.232 139.527 107.925 141.026 106.261C142.31 104.836 143.299 104.162 145.112 103.533C147.125 102.835 148.483 102.792 150.561 103.26C152.418 103.679 153.484 104.192 154.92 105.443C156.124 106.492 156.697 107.269 157.372 108.717C158.326 110.765 158.525 112.211 158.189 114.446C157.988 115.778 157.736 116.532 157.099 117.719C156.384 119.053 155.819 119.763 154.647 120.72C153.358 121.774 152.446 122.214 150.833 122.63C149.49 122.977 147.292 122.903 147.292 122.903L144.023 131.633L164.455 125.358L164.182 122.084C164.182 122.084 164.697 118.856 165.817 117.174C166.651 115.921 167.292 115.286 168.541 114.446C169.608 113.728 170.295 113.411 171.538 113.082C172.879 112.727 173.699 112.666 175.079 112.809C176.753 112.982 177.72 113.312 179.166 114.173C180.526 114.982 181.241 115.614 182.162 116.901C183.106 118.22 183.474 119.13 183.797 120.72C184.115 122.286 184.132 123.25 183.797 124.812C183.506 126.166 183.178 126.918 182.435 128.086C181.219 129.995 180.146 130.99 178.076 131.905C175.83 132.899 174.203 133.006 171.81 132.451C169.675 131.956 166.906 129.723 166.906 129.723L135.305 139.271L155.465 148.82C155.465 148.82 157.179 146.336 158.734 145.273C160.072 144.358 160.957 143.949 162.548 143.636C164.009 143.349 164.9 143.349 166.362 143.636C167.952 143.949 168.854 144.334 170.176 145.273C172.033 146.593 172.918 147.777 173.717 149.911C174.394 151.718 174.527 152.91 174.262 154.821C173.993 156.761 173.535 157.897 172.355 159.459C171.072 161.158 169.982 161.967 167.996 162.733C166.1 163.465 164.827 163.6 162.82 163.278C161.123 163.007 160.136 162.636 158.734 161.642C157.443 160.726 156.843 159.986 156.009 158.641C154.945 156.923 154.375 153.73 154.375 153.73L127.95 141.727L111.876 146.092L112.149 201.745C112.149 201.745 120.847 201.373 126.315 200.381C133.074 199.154 136.824 198.014 143.205 195.47C149.306 193.038 152.634 191.336 158.189 187.831C163.14 184.708 165.797 182.715 170.176 178.829C175.982 173.674 178.962 170.378 183.524 164.097C187.593 158.496 189.597 155.097 192.515 148.82C195.51 142.373 196.848 138.545 198.508 131.633C200.14 124.835 200.664 120.885 200.96 113.9C201.271 106.543 201.038 102.346 199.87 95.0762C198.841 88.6731 197.944 85.0953 195.784 78.9805C193.308 71.9728 191.485 68.1358 187.611 61.7935C183.691 55.3778 181.068 51.9727 175.897 46.5162C170.964 41.3121 167.869 38.6358 162.003 34.5126C155.922 30.2388 152.218 28.1609 145.385 25.2371C141.64 23.6349 139.48 22.8571 135.577 21.6906C131.597 20.5005 129.317 19.957 125.225 19.2353C118.291 18.0121 114.286 17.7298 107.245 17.8712C102.334 17.9699 99.5663 18.1987 94.7136 18.9625Z" fill="white"/>
<path fill-rule="evenodd" clip-rule="evenodd" d="M116.235 12.9607C123.771 13.5089 128.026 14.2072 135.305 16.2344C140.98 17.8148 144.116 18.9639 149.471 21.4178C156.192 24.4971 159.822 26.6395 165.817 30.9661C172.297 35.6434 175.707 38.6834 181.073 44.6065C185.977 50.0204 188.465 53.3584 192.242 59.611C195.912 65.6865 197.671 69.3256 200.142 75.9796C202.787 83.1009 203.873 87.2981 205.046 94.8034C206.2 102.184 206.441 106.436 206.136 113.9C205.864 120.554 205.381 124.308 203.956 130.814C202.573 137.134 201.491 140.645 199.053 146.637C196.665 152.505 195.031 155.709 191.697 161.096C187.819 167.362 185.27 170.701 180.255 176.101C175.225 181.516 172.07 184.307 166.089 188.65C159.723 193.272 155.837 195.533 148.654 198.744C141.896 201.765 137.894 203.114 130.674 204.745C124.701 206.095 121.258 206.556 115.146 206.928C107.281 207.407 102.782 207.249 94.986 206.11C87.2748 204.982 82.9597 203.885 75.6438 201.199C71.8399 199.803 69.7394 198.906 66.1089 197.107C62.6079 195.372 60.6933 194.285 57.3912 192.196C51.616 188.542 48.528 186.183 43.4975 181.557C37.835 176.35 34.924 173.062 30.4211 166.825C25.9516 160.634 23.756 156.87 20.6137 149.911C17.4253 142.85 16.0249 138.651 14.3479 131.087C12.9521 124.791 12.4821 121.16 12.1685 114.718C11.7846 106.832 12.0195 102.328 13.2582 94.5306C14.3446 87.6919 15.3046 83.8705 17.617 77.3436C19.7661 71.2781 21.2801 67.9518 24.4277 62.3391C26.4653 58.7059 27.7231 56.723 30.1486 53.3364C32.6178 49.8889 34.1227 48.0314 36.9593 44.8793C42.1519 39.1093 45.4195 36.1144 51.6703 31.5117C57.9317 26.9011 61.761 24.65 68.8331 21.4178C74.191 18.969 77.325 17.8173 82.9993 16.2344C90.1766 14.2321 94.3659 13.5134 101.797 12.9607C107.42 12.5424 110.611 12.5515 116.235 12.9607ZM94.7136 18.9625C89.9712 19.7089 87.3265 20.3154 82.7268 21.6906C77.8227 23.1568 75.1138 24.1803 70.4677 26.3283C64.3207 29.1702 60.9853 31.1085 55.4843 35.0582C51.7974 37.7054 49.8175 39.3328 46.4942 42.4241C41.9686 46.6337 39.6063 49.2314 35.8696 54.1549C32.9411 58.0134 31.4385 60.3024 29.0589 64.5216C26.9061 68.3388 25.8254 70.5638 24.1553 74.6155C21.6899 80.5965 20.6048 84.1124 19.2516 90.4385C18.3723 94.5492 18.0117 96.8928 17.617 101.078C17.1168 106.382 17.0714 109.397 17.3446 114.718C17.6144 119.971 17.9548 122.928 18.9792 128.086C19.991 133.181 20.7794 136.014 22.5207 140.908C24.4384 146.298 25.7666 149.258 28.5141 154.276C30.8833 158.603 32.3831 160.955 35.3247 164.915C38.2514 168.856 40.06 170.96 43.4975 174.464C47.7268 178.774 50.3201 181.017 55.2118 184.558C61.2749 188.946 64.986 191.076 71.8298 194.106C78.8759 197.226 83.0673 198.615 90.6272 200.108C96.7132 201.31 106.428 201.745 106.428 201.745L106.7 169.826L79.1853 150.456L55.7567 131.905L54.3946 131.633C54.3946 131.633 52.1539 132.832 50.5806 132.997C48.7539 133.187 47.6287 132.922 45.9493 132.178C44.2164 131.411 43.2996 130.673 42.1354 129.177C41.0523 127.786 40.5945 126.81 40.2284 125.085C39.8075 123.102 39.8708 121.828 40.5008 119.902C41.2358 117.655 44.0424 114.991 44.0424 114.991C44.0424 114.991 46.9018 113.293 48.946 113.082C50.3258 112.939 51.1466 113 52.4876 113.354C53.7306 113.683 54.4244 113.99 55.4843 114.718C56.6012 115.486 57.1501 116.07 57.9361 117.174C58.8207 118.416 59.2159 119.237 59.5706 120.72C59.9919 122.482 60.0455 123.61 59.5706 125.358C59.2956 126.37 58.4809 127.813 58.4809 127.813L83.8166 147.183L80.0026 123.994C80.0026 123.994 77.7699 123.52 76.4611 122.903C74.9391 122.185 74.0591 121.686 72.9195 120.447C71.7567 119.184 71.2479 118.269 70.7401 116.628C70.1722 114.793 70.0971 113.602 70.4677 111.718C70.7807 110.126 71.1717 109.227 72.1022 107.898C73.2281 106.29 74.1485 105.478 75.9162 104.625C78.0436 103.598 79.5833 103.395 81.9096 103.806C83.3691 104.064 84.1946 104.384 85.4511 105.17C87.1756 106.249 88.0452 107.189 88.9927 108.989C89.6675 110.272 89.9203 111.096 90.0824 112.536C90.3628 115.028 90.0591 116.691 88.7202 118.811C87.5919 120.597 84.6338 122.357 84.6338 122.357L89.8099 151.548L106.7 163.551V101.078L85.1787 84.7095C85.1787 84.7095 82.9848 86.2318 81.3647 86.6191C79.7092 87.0149 78.664 87.0041 77.0059 86.6191C75.8895 86.3599 75.2736 86.1019 74.2816 85.5279C72.7817 84.66 71.9898 83.9582 71.0125 82.527C69.9861 81.0238 69.5975 79.969 69.378 78.162C69.158 76.3518 69.3082 75.2412 69.9228 73.5243C70.6197 71.5776 71.3285 70.4799 72.9195 69.1593C74.6076 67.7583 75.9167 67.2316 78.0956 66.9769C79.9044 66.7654 81.0223 66.8815 82.7268 67.5225C84.7195 68.2719 85.8 69.0994 87.0857 70.7962C87.7479 71.6702 88.0518 72.229 88.4478 73.2515C89.2212 75.2483 89.4665 76.6194 88.9927 78.7077C88.7913 79.5952 88.1754 80.8902 88.1754 80.8902L106.7 94.8034V58.7926C106.7 58.7926 103.245 57.3085 101.797 55.5189C100.353 53.7356 99.7978 52.3501 99.6173 50.0627C99.418 47.5384 99.857 45.9015 101.252 43.7881C102.416 42.0246 103.425 41.138 105.338 40.2416C107.382 39.2841 108.827 39.0864 111.059 39.4232C112.158 39.5889 112.779 39.7665 113.783 40.2416C115.558 41.0811 116.472 41.9074 117.597 43.5153C118.528 44.8443 118.909 45.7448 119.232 47.3346C119.55 48.9006 119.567 49.8643 119.232 51.4268C118.941 52.7806 118.619 53.5361 117.87 54.7005C116.973 56.0932 116.297 56.8552 114.873 57.7014C113.802 58.3377 111.876 58.7926 111.876 58.7926V81.9814L137.757 73.2515C137.757 73.2515 137.79 70.6883 138.302 69.1593C138.679 68.0301 139.664 66.4313 139.664 66.4313C139.664 66.4313 141.131 64.5312 142.388 63.7032C143.544 62.9424 144.305 62.6301 145.657 62.3391C147.217 62.0035 148.18 62.0204 149.744 62.3391C151.332 62.6629 152.24 63.0314 153.558 63.976C154.844 64.8984 155.468 65.6192 156.282 66.9769C157.096 68.3352 157.43 69.2271 157.644 70.7962C157.965 73.1566 157.662 74.6889 156.554 76.798C155.781 78.2705 155.15 79.0601 153.83 80.0717C152.96 80.7382 152.401 81.044 151.378 81.4358C149.091 82.3114 147.481 82.3323 145.112 81.7086C142.515 81.0245 139.391 77.8893 139.391 77.8893L111.876 87.4376V140.635L138.029 133.269L142.661 121.266L139.119 116.628C139.119 116.628 138.26 113.456 138.574 111.445C138.92 109.232 139.527 107.925 141.026 106.261C142.31 104.836 143.299 104.162 145.112 103.533C147.125 102.835 148.483 102.792 150.561 103.26C152.418 103.679 153.484 104.192 154.92 105.443C156.124 106.492 156.697 107.269 157.372 108.717C158.326 110.765 158.525 112.211 158.189 114.446C157.988 115.778 157.736 116.532 157.099 117.719C156.384 119.053 155.819 119.763 154.647 120.72C153.358 121.774 152.446 122.214 150.833 122.63C149.49 122.977 147.292 122.903 147.292 122.903L144.023 131.633L164.455 125.358L164.182 122.084C164.182 122.084 164.697 118.856 165.817 117.174C166.651 115.921 167.292 115.286 168.541 114.446C169.608 113.728 170.295 113.411 171.538 113.082C172.879 112.727 173.699 112.666 175.079 112.809C176.753 112.982 177.72 113.312 179.166 114.173C180.526 114.982 181.241 115.614 182.162 116.901C183.106 118.22 183.474 119.13 183.797 120.72C184.115 122.286 184.132 123.25 183.797 124.812C183.506 126.166 183.178 126.918 182.435 128.086C181.219 129.995 180.146 130.99 178.076 131.905C175.83 132.899 174.203 133.006 171.81 132.451C169.675 131.956 166.906 129.723 166.906 129.723L135.305 139.271L155.465 148.82C155.465 148.82 157.179 146.336 158.734 145.273C160.072 144.358 160.957 143.949 162.548 143.636C164.009 143.349 164.9 143.349 166.362 143.636C167.952 143.949 168.854 144.334 170.176 145.273C172.033 146.593 172.918 147.777 173.717 149.911C174.394 151.718 174.527 152.91 174.262 154.821C173.993 156.761 173.535 157.897 172.355 159.459C171.072 161.158 169.982 161.967 167.996 162.733C166.1 163.465 164.827 163.6 162.82 163.278C161.123 163.007 160.136 162.636 158.734 161.642C157.443 160.726 156.843 159.986 156.009 158.641C154.945 156.923 154.375 153.73 154.375 153.73L127.95 141.727L111.876 146.092L112.149 201.745C112.149 201.745 120.847 201.373 126.315 200.381C133.074 199.154 136.824 198.014 143.205 195.47C149.306 193.038 152.634 191.336 158.189 187.831C163.14 184.708 165.797 182.715 170.176 178.829C175.982 173.674 178.962 170.378 183.524 164.097C187.593 158.496 189.597 155.097 192.515 148.82C195.51 142.373 196.848 138.545 198.508 131.633C200.14 124.835 200.664 120.885 200.96 113.9C201.271 106.543 201.038 102.346 199.87 95.0762C198.841 88.6731 197.944 85.0953 195.784 78.9805C193.308 71.9728 191.485 68.1358 187.611 61.7935C183.691 55.3778 181.068 51.9727 175.897 46.5162C170.964 41.3121 167.869 38.6358 162.003 34.5126C155.922 30.2388 152.218 28.1609 145.385 25.2371C141.64 23.6349 139.48 22.8571 135.577 21.6906C131.597 20.5005 129.317 19.957 125.225 19.2353C118.291 18.0121 114.286 17.7298 107.245 17.8712C102.334 17.9699 99.5663 18.1987 94.7136 18.9625Z" stroke="white" stroke-width="1.45503" mask="url(#path-6-outside-1_347_23)"/>
<defs>
<filter id="filter0_f_347_23" x="-187.442" y="-91.223" width="591.556" height="409.231" filterUnits="userSpaceOnUse" color-interpolation-filters="sRGB">
<feFlood flood-opacity="0" result="BackgroundImageFix"/>
<feBlend mode="normal" in="SourceGraphic" in2="BackgroundImageFix" result="shape"/>
<feGaussianBlur stdDeviation="25.6218" result="effect1_foregroundBlur_347_23"/>
</filter>
</defs>
</svg>
